<?xml version="1.0" encoding="UTF-8"?>
<svg width="90px" height="86px" viewBox="0 0 90 86" version="1.1" xmlns="http://www.w3.org/2000/svg" xmlns:xlink="http://www.w3.org/1999/xlink">
    <title>2B2A953C-7D0E-4BF4-9664-3973735DB6B3</title>
    <g id="Home" stroke="none" stroke-width="1" fill="none" fill-rule="evenodd">
        <g transform="translate(-223.000000, -1947.000000)" id="Group-34">
            <g transform="translate(223.000000, 1947.000000)">
                <ellipse id="Oval" fill="#FFF200" opacity="0.1" cx="41.5" cy="43" rx="41.5" ry="41"></ellipse>
                <g id="Group-3" fill="#000000" fill-rule="nonzero">
                    <path d="M83.5805583,32.6138702 C83.3121547,32.347033 82.9480958,32.1970829 82.5684584,32.1970023 L57.4878489,32.1970023 L57.4878489,17.15561 C57.4878489,16.3698427 56.8469259,15.7328525 56.0563073,15.7328525 L50.7710556,15.7328525 L50.7710556,9.11845283 C50.7710556,8.33268556 50.1301326,7.69569533 49.339514,7.69569533 L42.4294625,7.69569533 L42.4294625,1.4227575 C42.4294625,0.636990231 41.7885395,0 40.9979209,0 C40.2073022,0 39.5663792,0.636990231 39.5663792,1.4227575 L39.5663792,7.69569533 L32.6506016,7.69569533 C31.859983,7.69569533 31.21906,8.33268556 31.21906,9.11845283 L31.21906,15.7328525 L25.9323767,15.7328525 C25.1417581,15.7328525 24.5008351,16.3698427 24.5008351,17.15561 L24.5008351,43.9262151 L1.10228706,49.4408232 C0.456400798,49.5925327 0,50.1655596 0,50.8251663 L0,84.5772425 C0,85.3630098 0.640923021,86 1.43154163,86 L1.43154163,86 L82.5126282,85.9160573 C83.3032469,85.9160573 83.9441699,85.2790671 83.9441699,84.4932998 L84,33.6098005 C83.9972766,33.2359469 83.8466018,32.8781818 83.5805583,32.6138702 Z M34.0821432,10.5412103 L47.9079723,10.5412103 L47.9079723,15.7328525 L34.0821432,15.7328525 L34.0821432,10.5412103 Z M54.6247657,18.5783675 L54.6247657,83.0989975 L27.3639183,83.1274526 L27.3639183,18.5783675 L54.6247657,18.5783675 Z M2.86308327,51.9505674 L24.5008351,46.8499818 L24.5008351,83.1302981 L2.86308327,83.1530622 L2.86308327,51.9505674 Z M67.9180613,83.0705423 L67.9180613,78.3754425 L70.7739868,78.3754425 L70.7739868,83.0705423 L67.9180613,83.0705423 Z M81.0796551,83.0705423 L73.6356386,83.0776561 L73.6356386,76.9597988 C73.6356386,76.1740316 72.9947155,75.5370413 72.2040969,75.5370413 L66.4922458,75.5370413 C65.7016272,75.5370413 65.0607042,76.1740316 65.0607042,76.9597988 L65.0607042,83.0904609 L57.4935751,83.0975747 L57.4935751,35.032558 L81.1354852,35.032558 L81.0796551,83.0705423 Z M15.3361055,56.1960758 L15.3361055,57.9531814 C15.3361055,58.7389486 14.6951825,59.3759389 13.9045639,59.3759389 C13.1139453,59.3759389 12.4730223,58.7389486 12.4730223,57.9531814 L12.4730223,56.1960758 C12.4730223,55.4103086 13.1139453,54.7733183 13.9045639,54.7733183 C14.6951825,54.7733183 15.3361055,55.4103086 15.3361055,56.1960758 Z M21.0622721,56.1960758 L21.0622721,57.9531814 C21.0622721,58.7389486 20.421349,59.3759389 19.6307304,59.3759389 C18.8401118,59.3759389 18.1991888,58.7389486 18.1991888,57.9531814 L18.1991888,56.1960758 C18.1991888,55.4103086 18.8401118,54.7733183 19.6307304,54.7733183 C20.421349,54.7733183 21.0622721,55.4103086 21.0622721,56.1960758 Z M9.60993899,56.1960758 L9.60993899,57.9531814 C9.60993899,58.7389486 8.96901597,59.3759389 8.17839736,59.3759389 C7.38777874,59.3759389 6.74685572,58.7389486 6.74685572,57.9531814 L6.74685572,56.1960758 C6.74685572,55.4103086 7.38777874,54.7733183 8.17839736,54.7733183 C8.96901597,54.7733183 9.60993899,55.4103086 9.60993899,56.1960758 Z M15.3361055,65.048473 L15.3361055,66.8041558 C15.3361055,67.589923 14.6951825,68.2269133 13.9045639,68.2269133 C13.1139453,68.2269133 12.4730223,67.589923 12.4730223,66.8041558 L12.4730223,65.0527413 C12.4730223,64.266974 13.1139453,63.6299838 13.9045639,63.6299838 C14.6951825,63.6299838 15.3361055,64.266974 15.3361055,65.0527413 L15.3361055,65.048473 Z M21.0622721,65.048473 L21.0622721,66.8041558 C21.0622721,67.589923 20.421349,68.2269133 19.6307304,68.2269133 C18.8401118,68.2269133 18.1991888,67.589923 18.1991888,66.8041558 L18.1991888,65.0527413 C18.1991888,64.266974 18.8401118,63.6299838 19.6307304,63.6299838 C20.421349,63.6299838 21.0622721,64.266974 21.0622721,65.0527413 L21.0622721,65.048473 Z M9.60993899,65.048473 L9.60993899,66.8041558 C9.60993899,67.589923 8.96901597,68.2269133 8.17839736,68.2269133 C7.38777874,68.2269133 6.74685572,67.589923 6.74685572,66.8041558 L6.74685572,65.0527413 C6.74685572,64.266974 7.38777874,63.6299838 8.17839736,63.6299838 C8.96901597,63.6299838 9.60993899,64.266974 9.60993899,65.0527413 L9.60993899,65.048473 Z M15.3361055,73.9008702 L15.3361055,75.656553 C15.3361055,76.4423202 14.6951825,77.0793105 13.9045639,77.0793105 C13.1139453,77.0793105 12.4730223,76.4423202 12.4730223,75.656553 L12.4730223,73.9008702 C12.4730223,73.1151029 13.1139453,72.4781127 13.9045639,72.4781127 C14.6951825,72.4781127 15.3361055,73.1151029 15.3361055,73.9008702 Z M21.0622721,73.9008702 L21.0622721,75.656553 C21.0622721,76.4423202 20.421349,77.0793105 19.6307304,77.0793105 C18.8401118,77.0793105 18.1991888,76.4423202 18.1991888,75.656553 L18.1991888,73.9008702 C18.1991888,73.1151029 18.8401118,72.4781127 19.6307304,72.4781127 C20.421349,72.4781127 21.0622721,73.1151029 21.0622721,73.9008702 Z M9.60993899,73.9008702 L9.60993899,75.656553 C9.60993899,76.4423202 8.96901597,77.0793105 8.17839736,77.0793105 C7.38777874,77.0793105 6.74685572,76.4423202 6.74685572,75.656553 L6.74685572,73.9008702 C6.74685572,73.1151029 7.38777874,72.4781127 8.17839736,72.4781127 C8.96901597,72.4781127 9.60993899,73.1151029 9.60993899,73.9008702 Z M67.9109036,43.4083314 L67.9109036,41.6526486 C67.9109036,40.8668814 68.5518266,40.2298911 69.3424452,40.2298911 C70.1330638,40.2298911 70.7739868,40.8668814 70.7739868,41.6526486 L70.7739868,43.4083314 C70.7739868,44.1940987 70.1330638,44.8310889 69.3424452,44.8310889 C68.5518266,44.8310889 67.9109036,44.1940987 67.9109036,43.4083314 Z M73.6370701,43.4083314 L73.6370701,41.6526486 C73.6370701,40.8668814 74.2779931,40.2298911 75.0686117,40.2298911 C75.8592304,40.2298911 76.5001534,40.8668814 76.5001534,41.6526486 L76.5001534,43.4083314 C76.5001534,44.1940987 75.8592304,44.8310889 75.0686117,44.8310889 C74.2779931,44.8310889 73.6370701,44.1940987 73.6370701,43.4083314 Z M62.184737,43.4083314 L62.184737,41.6526486 C62.184737,40.8668814 62.8256601,40.2298911 63.6162787,40.2298911 C64.4068973,40.2298911 65.0478203,40.8668814 65.0478203,41.6526486 L65.0478203,43.4083314 C65.0478203,44.1940987 64.4068973,44.8310889 63.6162787,44.8310889 C62.8256601,44.8310889 62.184737,44.1940987 62.184737,43.4083314 Z M67.9109036,52.2621513 L67.9109036,50.5050458 C67.9109036,49.7192786 68.5518266,49.0822883 69.3424452,49.0822883 C70.1330638,49.0822883 70.7739868,49.7192786 70.7739868,50.5050458 L70.7739868,52.2621513 C70.7739868,53.0479186 70.1330638,53.6849088 69.3424452,53.6849088 C68.5518266,53.6849088 67.9109036,53.0479186 67.9109036,52.2621513 Z M73.6370701,52.2621513 L73.6370701,50.5050458 C73.6370701,49.7192786 74.2779931,49.0822883 75.0686117,49.0822883 C75.8592304,49.0822883 76.5001534,49.7192786 76.5001534,50.5050458 L76.5001534,52.2621513 C76.5001534,53.0479186 75.8592304,53.6849088 75.0686117,53.6849088 C74.2779931,53.6849088 73.6370701,53.0479186 73.6370701,52.2621513 Z M62.184737,52.2621513 L62.184737,50.5050458 C62.184737,49.7192786 62.8256601,49.0822883 63.6162787,49.0822883 C64.4068973,49.0822883 65.0478203,49.7192786 65.0478203,50.5050458 L65.0478203,52.2621513 C65.0478203,53.0479186 64.4068973,53.6849088 63.6162787,53.6849088 C62.8256601,53.6849088 62.184737,53.0479186 62.184737,52.2621513 Z M67.9109036,61.1131258 L67.9109036,59.3617113 C67.9109036,58.575944 68.5518266,57.9389538 69.3424452,57.9389538 C70.1330638,57.9389538 70.7739868,58.575944 70.7739868,59.3617113 L70.7739868,61.117394 C70.7739868,61.9031613 70.1330638,62.5401515 69.3424452,62.5401515 C68.5518266,62.5401515 67.9109036,61.9031613 67.9109036,61.117394 L67.9109036,61.1131258 Z M73.6370701,61.1131258 L73.6370701,59.3617113 C73.6370701,58.575944 74.2779931,57.9389538 75.0686117,57.9389538 C75.8592304,57.9389538 76.5001534,58.575944 76.5001534,59.3617113 L76.5001534,61.117394 C76.5001534,61.9031613 75.8592304,62.5401515 75.0686117,62.5401515 C74.2779931,62.5401515 73.6370701,61.9031613 73.6370701,61.117394 L73.6370701,61.1131258 Z M62.184737,61.1131258 L62.184737,59.3617113 C62.184737,58.575944 62.8256601,57.9389538 63.6162787,57.9389538 C64.4068973,57.9389538 65.0478203,58.575944 65.0478203,59.3617113 L65.0478203,61.117394 C65.0478203,61.9031613 64.4068973,62.5401515 63.6162787,62.5401515 C62.8256601,62.5401515 62.184737,61.9031613 62.184737,61.117394 L62.184737,61.1131258 Z M67.9109036,69.6496708 L67.9109036,67.8982563 C67.9109036,67.112489 68.5518266,66.4754988 69.3424452,66.4754988 C70.1330638,66.4754988 70.7739868,67.112489 70.7739868,67.8982563 L70.7739868,69.6539391 C70.7739868,70.4397063 70.1330638,71.0766966 69.3424452,71.0766966 C68.5518266,71.0766966 67.9109036,70.4397063 67.9109036,69.6539391 L67.9109036,69.6496708 Z M73.6370701,69.6496708 L73.6370701,67.8982563 C73.6370701,67.112489 74.2779931,66.4754988 75.0686117,66.4754988 C75.8592304,66.4754988 76.5001534,67.112489 76.5001534,67.8982563 L76.5001534,69.6539391 C76.5001534,70.4397063 75.8592304,71.0766966 75.0686117,71.0766966 C74.2779931,71.0766966 73.6370701,70.4397063 73.6370701,69.6539391 L73.6370701,69.6496708 Z M62.184737,69.6496708 L62.184737,67.8982563 C62.184737,67.112489 62.8256601,66.4754988 63.6162787,66.4754988 C64.4068973,66.4754988 65.0478203,67.112489 65.0478203,67.8982563 L65.0478203,69.6539391 C65.0478203,70.4397063 64.4068973,71.0766966 63.6162787,71.0766966 C62.8256601,71.0766966 62.184737,70.4397063 62.184737,69.6539391 L62.184737,69.6496708 Z" id="Shape"></path>
                    <path d="M33,25.5 C33,24.6715729 33.6594887,24 34.4730093,24 L48.5269907,24 C49.3405113,24 50,24.6715729 50,25.5 C50,26.3284271 49.3405113,27 48.5269907,27 L34.4730093,27 C33.6594887,27 33,26.3284271 33,25.5 Z" id="Path"></path>
                    <path d="M33,33.0714286 C33,32.2430014 33.6594951,31.5714286 34.4730153,31.5714286 L48.5269913,31.5714286 C49.3405115,31.5714286 50,32.2430014 50,33.0714286 C50,33.8998557 49.3405115,34.5714286 48.5269913,34.5714286 L34.4730153,34.5714286 C34.0815823,34.5714286 33.7062455,34.4127775 33.4298754,34.1304989 C33.1535053,33.8482204 32.9988323,33.4655324 33,33.0669286 L33,33.0714286 Z" id="Path"></path>
                    <path d="M33,40.6428571 C33,39.81443 33.6594887,39.1428571 34.4730093,39.1428571 L48.5269907,39.1428571 C49.3405113,39.1428571 50,39.81443 50,40.6428571 C50,41.4712843 49.3405113,42.1428571 48.5269907,42.1428571 L34.4730093,42.1428571 C33.6594887,42.1428571 33,41.4712843 33,40.6428571 L33,40.6428571 Z" id="Path"></path>
                    <path d="M33,48.2142857 C33,47.3858586 33.6594887,46.7142857 34.4730093,46.7142857 L48.5269907,46.7142857 C49.3405113,46.7142857 50,47.3858586 50,48.2142857 C50,49.0427128 49.3405113,49.7142857 48.5269907,49.7142857 L34.4730093,49.7142857 C33.6594887,49.7142857 33,49.0427128 33,48.2142857 Z" id="Path"></path>
                    <path d="M33,55.7857143 C33,54.9572872 33.6594887,54.2857143 34.4730093,54.2857143 L48.5269907,54.2857143 C49.3405113,54.2857143 50,54.9572872 50,55.7857143 C50,56.6141414 49.3405113,57.2857143 48.5269907,57.2857143 L34.4730093,57.2857143 C33.6594887,57.2857143 33,56.6141414 33,55.7857143 L33,55.7857143 Z" id="Path"></path>
                    <path d="M33,63.3571429 C33,62.5287157 33.6594887,61.8571429 34.4730093,61.8571429 L48.5269907,61.8571429 C49.3405113,61.8571429 50,62.5287157 50,63.3571429 C50,64.18557 49.3405113,64.8571429 48.5269907,64.8571429 L34.4730093,64.8571429 C33.6594887,64.8571429 33,64.18557 33,63.3571429 L33,63.3571429 Z" id="Path"></path>
                    <path d="M33,70.9285714 C33,70.1001443 33.6594887,69.4285714 34.4730093,69.4285714 L48.5269907,69.4285714 C49.3405113,69.4285714 50,70.1001443 50,70.9285714 C50,71.7569986 49.3405113,72.4285714 48.5269907,72.4285714 L34.4730093,72.4285714 C33.6594887,72.4285714 33,71.7569986 33,70.9285714 L33,70.9285714 Z" id="Path"></path>
                    <path d="M33,78.5 C33,77.6715729 33.6594887,77 34.4730093,77 L48.5269907,77 C49.3405113,77 50,77.6715729 50,78.5 C50,79.3284271 49.3405113,80 48.5269907,80 L34.4730093,80 C33.6594887,80 33,79.3284271 33,78.5 L33,78.5 Z" id="Path"></path>
                </g>
                <g id="Group-20" transform="translate(74.000000, 17.000000)" fill-rule="nonzero">
                    <path d="M16,8.12268503 C16,3.64383651 12.4112,0 8,0 C3.5888,0 0,3.64383651 0,8.12268503 C0,10.7658067 1.2688,13.0953928 3.2,14.5802196 L3.2,25 L8,22.5631945 L12.8,25 L12.8,14.5802196 C14.7312,13.0953928 16,10.7658067 16,8.12268503 Z" id="Path" fill="#F1191C"></path>
                    <path d="M11,21 L8,19.6690328 L5,21 L5,15 C5.969,15.1783496 6.974,15.2715173 8,15.2715173 C9.026,15.2715173 10.031,15.1783496 11,15 L11,21 Z" id="Path" fill="#FFFDE5"></path>
                    <path d="M8,13 C5.24333333,13 3,10.7566667 3,8 C3,5.24333333 5.24333333,3 8,3 C10.7566667,3 13,5.24333333 13,8 C13,10.7566667 10.7566667,13 8,13 Z" id="Path" fill="#FFFDE5"></path>
                </g>
            </g>
        </g>
    </g>
</svg>