<?xml version="1.0" encoding="UTF-8"?>
<svg width="83px" height="82px" viewBox="0 0 83 82" version="1.1" xmlns="http://www.w3.org/2000/svg" xmlns:xlink="http://www.w3.org/1999/xlink">
    <title>1109CC32-D2E2-48B8-98C7-D9C5F4EACD58</title>
    <g id="Home" stroke="none" stroke-width="1" fill="none" fill-rule="evenodd">
        <g transform="translate(-937.000000, -1949.000000)" id="Group-27">
            <g transform="translate(937.000000, 1949.000000)">
                <ellipse id="Oval-Copy-3" fill="#FFF200" opacity="0.1" cx="41.5" cy="41" rx="41.5" ry="41"></ellipse>
                <g id="Group-11" transform="translate(5.000000, 5.000000)" fill-rule="nonzero">
                    <path d="M43.7129309,33.5723816 C43.5745348,33.5723816 43.436646,33.5807968 43.2994024,33.5970168 C42.6403822,32.8293225 41.5906391,32.3903957 40.5009984,32.4590388 C39.9679012,31.7092265 39.0867201,31.1981151 38.0905181,31.1018487 L38.0905181,24.1030443 C38.0905181,22.3631135 36.6614216,21 34.8364717,21 C33.0377093,21 31.6285617,22.3631135 31.6285617,24.1030443 L31.6285617,32.8176975 C30.9348368,32.2625212 30.1077775,31.8830474 29.1781838,31.8830474 C28.3950472,31.8830474 27.635179,32.1482082 27.0382748,32.6295951 C24.9347616,34.3270657 26.5091447,37.1254793 27.5509002,38.9770117 C27.8345364,39.4808735 28.1022508,39.9565567 28.2372762,40.3052503 C28.5380022,41.0810241 28.8489941,41.8822101 29.1822087,42.6049504 C29.923236,44.6046191 30.7565341,45.8528662 31.4331692,46.8670095 C32.2841422,48.1390598 32.752905,48.8391077 32.752905,50.4787852 C32.7529051,51.3177791 33.4734584,52 34.3586088,52 L42.9621628,52 C43.8490665,52 44.5701539,51.3177791 44.5701539,50.4787851 C44.5701539,50.0657647 45.0007611,49.2553927 45.3886271,48.5261188 C46.1040497,47.1697565 46.994856,45.4820292 46.994856,43.4802024 L47,36.6021897 C47,34.9314554 45.5253411,33.5723816 43.7129309,33.5723816 Z M44.9946445,43.5927863 C44.9946445,45.0946045 44.2753293,46.4255939 43.575022,47.7208605 C43.145109,48.5097132 42.7335972,49.2655425 42.5586559,50 L34.9986229,50 C34.8509476,48.1295734 34.1126868,47.0528917 33.2670716,45.8197236 C32.6314304,44.889688 31.8397356,43.7322869 31.1560646,41.9195771 L31.1210897,41.8366046 C30.7973173,41.1559801 30.4806514,40.3594798 30.1645924,39.5641083 C29.9765984,39.0900311 29.6593233,38.5396247 29.323105,37.9573235 C28.6494546,36.7881122 27.5215993,34.8317368 28.2201484,34.2816114 C28.4028102,34.1376691 28.635246,34.0585804 28.8747931,34.0585804 C29.7797373,34.0585804 30.9443255,35.4101562 31.342238,36.5727887 C31.6369841,37.4349323 32.260784,37.5634637 32.6064739,37.5634637 C32.6070808,37.5634637 32.6070808,37.5634637 32.6070808,37.5634637 L33.1366393,37.5590735 L33.4947798,37.2108327 C33.8435157,36.8727113 33.8695563,36.4582627 33.8547408,36.1869133 L33.8547408,23.9030934 C33.8547408,23.3883496 34.2461049,23 34.7655733,23 C35.3123147,23 35.7244357,23.3883496 35.7244357,23.9030934 L35.7244357,33.9275749 L37.384226,33.3213677 C37.9689094,33.1074498 38.6627215,33.4194121 38.7742082,33.9245365 L39.078375,35.3044064 L40.4642249,34.7240751 C40.9735615,34.5106636 41.6229271,34.7322869 41.8268925,35.1764372 L42.2621471,36.4640005 L43.5524932,35.8724189 C43.6906969,35.8086875 43.8477882,35.775162 44.0067559,35.775162 C44.5546553,35.775162 45,36.1468067 45,36.6038379 L44.9946445,43.5927863 Z" id="Shape" stroke="#000000" stroke-width="0.5" fill="#000000"></path>
                    <path d="M36.5,11 C39.5373661,11 42,8.53759478 42,5.49972516 C42,2.462625 39.5373661,0 36.5,0 C33.462122,0 31,2.462625 31,5.49972516 C31,8.53759478 33.462122,11 36.5,11 Z M36.5,2 C38.4300086,2 40,3.56998339 40,5.49970851 C40,7.42972482 38.4300086,9 36.5,9 C34.5699737,9 33,7.42972482 33,5.49970851 C33,3.56998339 34.5699737,2 36.5,2 Z" id="Shape" stroke="#000000" fill="#000000"></path>
                    <path d="M36.5,62 C33.462122,62 31,64.4626255 31,67.5 C31,70.5378697 33.462122,73 36.5,73 C39.5373661,73 42,70.5378697 42,67.5 C42,64.4626255 39.5373661,62 36.5,62 Z M36.5,71 C34.5699737,71 33,69.4300175 33,67.5 C33,65.5699825 34.5699737,64 36.5,64 C38.4300086,64 40,65.5699825 40,67.5 C40,69.4300175 38.4300086,71 36.5,71 Z" id="Shape" stroke="#000000" fill="#000000"></path>
                    <path d="M67.5,31 C64.462122,31 62,33.4621303 62,36.5 C62,39.5373745 64.462122,42 67.5,42 C70.5373661,42 73,39.5373745 73,36.5 C73,33.4621303 70.5373661,31 67.5,31 Z M67.5,40 C65.5699737,40 64,38.4300175 64,36.5 C64,34.5699825 65.5699737,33 67.5,33 C69.4300041,33 71,34.5699825 71,36.5 C71,38.4300175 69.4300041,40 67.5,40 Z" id="Shape" stroke="#000000" fill="#000000"></path>
                    <path d="M11,36.5 C11,33.4621303 8.53736664,31 5.5,31 C2.46212169,31 0,33.4621303 0,36.5 C0,39.5373745 2.46212169,42 5.5,42 C8.53736664,42 11,39.5373745 11,36.5 Z M5.5,40 C3.56997447,40 2,38.4300175 2,36.5 C2,34.5699825 3.56997447,33 5.5,33 C7.43000803,33 9,34.5699825 9,36.5 C9,38.4300175 7.43000803,40 5.5,40 Z" id="Shape" stroke="#000000" fill="#000000"></path>
                    <path d="M58,21 C61.3134903,21 64,18.3135666 64,14.9998501 C64,11.6864929 61.3140305,9 58,9 C54.6859512,9 52,11.6867332 52,14.9995503 C52,18.3138069 54.6859512,20.9997002 58,21 Z M58,11 C60.2057241,11 62,12.7941923 62,14.9998334 C62,17.2054746 60.2057241,19 58,19 C55.7942556,18.9996669 54,17.2051414 54,14.9995003 C54,12.7941923 55.7942556,11 58,11 Z" id="Shape" stroke="#F1191C" fill="#F1191C"></path>
                    <path d="M15,52 C11.6859512,52 9.0005997,54.6865005 9,58 C9.0005997,61.3140396 11.6864902,64 15,64 C18.3140305,64 21,61.3140396 21,58 C21,54.6865005 18.3134903,52 15,52 Z M15,62 C12.7949231,62 11.0006663,60.2057343 11,58.0006663 C11.0006663,55.7942657 12.7949231,54 15,54 C17.2057228,54 19,55.7942657 19,58 C19,60.2057343 17.2057228,62 15,62 Z" id="Shape" stroke="#000000" fill="#000000"></path>
                    <path d="M58,52 C54.6864914,52 52.0005997,54.6859604 52,58 C52.0005997,61.3134995 54.6864914,64 58,64 C61.3140305,64 64,61.3134995 64,58 C64,54.6865005 61.3140305,52 58,52 Z M58,62 C55.7949219,62 54.0006663,60.2057343 54,58.0006663 C54.0006663,55.7942657 55.7949219,54 58,54 C60.2057241,54 62,55.7942657 62,58 C62,60.2057343 60.2057241,62 58,62 Z" id="Shape" stroke="#000000" fill="#000000"></path>
                    <path d="M15,9 C11.6859512,9.00029981 9,11.6864929 9,15.0001499 C9,18.3138069 11.6859512,20.9997002 15,21 C18.3140305,21 21,18.3138069 21,15.0001499 C21,11.6858933 18.3134903,9.00029981 15,9 Z M15,19 C12.7942569,18.9996669 11,17.2054745 11,15.0001666 C11,12.7948586 12.7942569,11.0003331 15,11 C17.2057228,11.0003331 19,12.7948586 19,15.0001666 C19,17.2058077 17.2057228,19 15,19 Z" id="Shape" stroke="#000000" fill="#000000"></path>
                </g>
            </g>
        </g>
    </g>
</svg>