<?xml version="1.0" encoding="UTF-8"?>
<svg width="92px" height="73px" viewBox="0 0 92 73" version="1.1" xmlns="http://www.w3.org/2000/svg" xmlns:xlink="http://www.w3.org/1999/xlink">
    <title>02396CEB-B02E-4C9F-9371-CD1FAECC6401</title>
    <g id="Home" stroke="none" stroke-width="1" fill="none" fill-rule="evenodd">
        <g transform="translate(-580.000000, -1954.000000)" id="Group-33">
            <g transform="translate(580.000000, 1954.000000)">
                <ellipse id="Oval-Copy" fill="#FFF200" opacity="0.1" cx="37" cy="36.5" rx="37" ry="36.5"></ellipse>
                <path d="M59.4098045,6.25 L1.91644531,6.25 C1.04424235,6.25 0.328988266,6.91568352 0.256114437,7.76311329 L0.25,7.90595145 L0.25,57.4606891 C0.25,58.3268192 0.919348663,59.0380886 1.77261461,59.1105598 L1.91644531,59.1166405 L11.89443,59.1166405 L11.9352628,59.3166282 C12.8183007,63.6414996 16.6423873,66.75 21.0808984,66.75 C25.4269405,66.75 29.1838924,63.7696713 30.1675356,59.5853317 L30.2265339,59.3166282 L30.2673667,59.1166405 L65.5548986,59.1166405 L65.5957314,59.3166282 C66.4787692,63.6414996 70.3028558,66.75 74.7413669,66.75 C79.087409,66.75 82.844361,63.7696713 83.8280042,59.5853317 L83.8870025,59.3166282 L83.9278353,59.1166405 L90.0729294,59.1166405 C90.9451323,59.1166405 91.6603864,58.450957 91.7332602,57.6035272 L91.7393747,57.4606891 L91.7408212,40.2478911 L91.7503315,40.1052973 L91.7485963,40.078347 C91.7468367,40.0621021 91.7431588,40.0434769 91.7372607,40.0219687 L91.7126044,39.9482922 L91.6466833,39.7987435 L91.4952693,39.5106432 L91.3261494,39.2148425 L90.920352,38.5398141 L90.3351261,37.5963974 L78.1133252,18.4182532 L78.0632753,18.3455721 L77.9840981,18.2431621 C77.8606701,18.0976515 77.7120933,17.9879777 77.4820932,17.9055933 L77.3160796,17.8546195 C77.2861944,17.8467664 77.2551495,17.8392267 77.2228678,17.8319889 L77.0137187,17.7920885 C76.9386433,17.7799328 76.8580032,17.7688902 76.7711808,17.758867 L76.4915489,17.7317616 L76.1711178,17.7102094 L75.806182,17.6936478 L75.1672268,17.6769315 L74.1249374,17.6668573 L63.9692046,17.7202206 L61.0762498,17.723959 L61.0762498,7.90595145 C61.0762498,7.03982127 60.4069011,6.32855196 59.5536352,6.25608076 L59.4098045,6.25 Z M20.7242395,50.7406501 C24.452152,50.7406501 27.4742395,53.7622163 27.4742395,57.4895284 C27.4742395,61.2168406 24.452152,64.2384067 20.7242395,64.2384067 C16.996327,64.2384067 13.9742395,61.2168406 13.9742395,57.4895284 C13.9742395,53.7622163 16.996327,50.7406501 20.7242395,50.7406501 Z M74.7425881,50.7406501 C78.4705002,50.7406501 81.4925881,53.7622167 81.4925881,57.4895302 C81.4925881,61.2168438 78.4705002,64.2384103 74.7425881,64.2384103 C71.014676,64.2384103 67.9925881,61.2168438 67.9925881,57.4895302 C67.9925881,53.7622167 71.014676,50.7406501 74.7425881,50.7406501 Z M57.6444954,43.3527397 L57.6444954,55.5513699 L29.987632,55.5513699 L29.9472967,55.3506155 C29.0577738,50.9233445 25.2071346,47.7425098 20.7391874,47.7425098 C16.3624228,47.7425098 12.5780271,50.7948394 11.5892187,55.0811319 L11.4907428,55.5513699 L3.12614679,55.5513699 L3.12614679,43.3527397 L57.6444954,43.3527397 Z M61.3646789,20.7910959 L76.1238168,20.7910959 L78.8957515,25.097793 L67.4023591,25.097793 C66.5230483,25.097793 65.8026825,25.7628373 65.7292902,26.6085922 L65.7231324,26.7511416 L65.7231324,40.0745814 C65.7231324,40.9389204 66.3972187,41.6494563 67.2573627,41.7218552 L67.4023591,41.72793 L88.8738532,41.72793 L88.8738532,47.9379756 L86.6946265,47.9379756 C85.7664651,47.9379756 85.0153997,48.6789664 85.0153997,49.5913242 C85.0153997,50.4556632 85.6894861,51.166199 86.5496301,51.238598 L86.6946265,51.2446728 L88.8738532,51.2446728 L88.8738532,55.5513699 L84.3686916,55.5513699 L84.3276098,55.3517683 C83.4387443,51.033103 79.5886416,47.928435 75.1192661,47.928435 C70.7430025,47.928435 66.9604775,50.9050894 65.970311,55.0834496 L65.9109223,55.3517683 L65.8698405,55.5513699 L61.3646789,55.5513699 L61.3646789,20.7910959 Z M57.6444954,8.95982822 L57.6444954,39.54202 L3.12614679,39.54202 L3.12614679,8.95982822 L57.6444954,8.95982822 Z" id="Shape" fill="#000000" fill-rule="nonzero"></path>
                <polygon id="Path" fill="#F1191C" fill-rule="nonzero" points="87 38 69 38 69 29 80.7647059 29"></polygon>
            </g>
        </g>
    </g>
</svg>